<svg xmlns="http://www.w3.org/2000/svg" fill="currentColor" class="bi bi-image" viewBox="0 0 16 16" xmlns:xlink="http://www.w3.org/1999/xlink" xml:space="preserve" width="100%" height="100%"><path xmlns="http://www.w3.org/2000/svg" fill-rule="evenodd" d="M14.002 2h-12a1 1 0 0 0-1 1v10a1 1 0 0 0 1 1h12a1 1 0 0 0 1-1V3a1 1 0 0 0-1-1zm-12-1a2 2 0 0 0-2 2v10a2 2 0 0 0 2 2h12a2 2 0 0 0 2-2V3a2 2 0 0 0-2-2h-12z" style="fill: rgb(70, 68, 131);"></path><path xmlns="http://www.w3.org/2000/svg" d="M10.648 7.646a.5.5 0 0 1 .577-.093L15.002 9.5V14h-14v-2l2.646-2.354a.5.5 0 0 1 .63-.062l2.66 1.773 3.71-3.71z" style="fill: rgb(70, 68, 131);"></path><path xmlns="http://www.w3.org/2000/svg" fill-rule="evenodd" d="M4.502 7a1.5 1.5 0 1 0 0-3 1.5 1.5 0 0 0 0 3z" style="fill: rgb(70, 68, 131);"></path></svg>