<svg xmlns="http://www.w3.org/2000/svg" id="Layer_1" x="0" y="0" version="1.1" viewBox="704.081 796 200 200" xml:space="preserve" xmlns:xlink="http://www.w3.org/1999/xlink" width="100%" height="100%"><path xmlns="http://www.w3.org/2000/svg" d="m891.876 977.909-6.938-125.811h-34.661v-10.157c0-25.333-20.608-45.941-45.94-45.941s-45.94 20.609-45.94 45.941v10.157h-36.161l-5.969 126.355-.006.219a17.245 17.245 0 0 0 4.955 12.239 17.257 17.257 0 0 0 12.19 5.089h141.351a17.22 17.22 0 0 0 12.453-5.36 17.215 17.215 0 0 0 4.666-12.731zM770.379 841.941c0-18.725 15.233-33.959 33.958-33.959 18.724 0 33.958 15.234 33.958 33.959v10.157h-67.917v-10.157zm108.128 140.461a5.19 5.19 0 0 1-3.751 1.615H733.405a5.194 5.194 0 0 1-3.672-1.534 5.188 5.188 0 0 1-1.492-3.597l5.423-114.806h24.731v15.173a5.99 5.99 0 1 0 11.982 0V864.08h67.917v15.173a5.99 5.99 0 1 0 11.981 0V864.08h23.321l6.313 114.49a5.164 5.164 0 0 1-1.402 3.832z" style="fill: rgb(45, 42, 129);"></path></svg>